<svg width="100" height="100" viewBox="0 0 100 100" fill="none" xmlns="http://www.w3.org/2000/svg">
<rect width="100" height="100" fill="#787878"/>
<g clip-path="url(#clip0_1181_1434)">
<rect x="34" y="34" width="32" height="32" rx="16" fill="#FBFBFB"/>
<rect x="34" y="34" width="32" height="32" rx="16" fill="white"/>
<path fill-rule="evenodd" clip-rule="evenodd" d="M44.3434 44.3431C44.7339 43.9526 45.3671 43.9526 45.7576 44.3431L50.0002 48.5858L54.2429 44.3431C54.6334 43.9526 55.2666 43.9526 55.6571 44.3431C56.0476 44.7337 56.0476 45.3668 55.6571 45.7574L51.4144 50L55.6571 54.2426C56.0476 54.6332 56.0476 55.2663 55.6571 55.6569C55.2666 56.0474 54.6334 56.0474 54.2429 55.6569L50.0002 51.4142L45.7576 55.6569C45.3671 56.0474 44.7339 56.0474 44.3434 55.6569C43.9529 55.2663 43.9529 54.6332 44.3434 54.2426L48.586 50L44.3434 45.7574C43.9529 45.3668 43.9529 44.7337 44.3434 44.3431Z" fill="#6A6A6A"/>
</g>
<defs>
<clipPath id="clip0_1181_1434">
<rect x="34" y="34" width="32" height="32" rx="16" fill="white"/>
</clipPath>
</defs>
</svg>
