<svg width="12" height="14" viewBox="0 0 12 14" fill="none" xmlns="http://www.w3.org/2000/svg">
<path d="M4.2 3.5C3.8134 3.5 3.5 3.8134 3.5 4.2C3.5 4.5866 3.8134 4.9 4.2 4.9H7C7.3866 4.9 7.7 4.5866 7.7 4.2C7.7 3.8134 7.3866 3.5 7 3.5H4.2Z" fill="white"/>
<path d="M3.5 7C3.5 6.6134 3.8134 6.3 4.2 6.3H7C7.3866 6.3 7.7 6.6134 7.7 7C7.7 7.3866 7.3866 7.7 7 7.7H4.2C3.8134 7.7 3.5 7.3866 3.5 7Z" fill="white"/>
<path d="M4.2 9.1C3.8134 9.1 3.5 9.4134 3.5 9.8C3.5 10.1866 3.8134 10.5 4.2 10.5H7C7.3866 10.5 7.7 10.1866 7.7 9.8C7.7 9.4134 7.3866 9.1 7 9.1H4.2Z" fill="white"/>
<path fill-rule="evenodd" clip-rule="evenodd" d="M0.7 0C0.313401 0 0 0.313401 0 0.7V13.3C0 13.6866 0.313401 14 0.7 14H10.5C10.8866 14 11.2 13.6866 11.2 13.3V0.7C11.2 0.313401 10.8866 0 10.5 0H0.7ZM1.4 12.6V1.4H9.8V12.6H1.4Z" fill="white"/>
</svg>
